<svg width="50" height="32" viewBox="0 0 50 32" fill="none" xmlns="http://www.w3.org/2000/svg">
<g clip-path="url(#clip0_1818_2852)">
<path fill-rule="evenodd" clip-rule="evenodd" d="M45.3947 32H4.60526C2.10526 32 0 29.8667 0 27.3333V4.66667C0 2.13333 2.10526 0 4.60526 0H45.3947C47.8947 0 50 2.13333 50 4.66667V27.3333C50 29.8667 47.8947 32 45.3947 32Z" fill="#EDEDED"/>
<path fill-rule="evenodd" clip-rule="evenodd" d="M4.60197 1.33301C2.75987 1.33301 1.3125 2.79967 1.3125 4.66634V27.333C1.3125 29.1997 2.75987 30.6663 4.60197 30.6663H45.3914C47.2336 30.6663 48.6809 29.1997 48.6809 27.333V4.66634C48.6809 2.79967 47.2336 1.33301 45.3914 1.33301H4.60197Z" fill="white"/>
<path fill-rule="evenodd" clip-rule="evenodd" d="M29.3412 4C30.1306 4.13333 30.9201 4.26667 31.578 4.4C34.4727 4.93333 36.7096 7.06667 37.4991 9.86667C37.8938 12 37.6306 14.2667 36.578 16.1333C35.3938 18.5333 33.8149 20.5333 31.7096 22.1333C28.9464 24.5333 25.657 26.4 22.1043 27.6C21.3149 27.8667 20.3938 28 19.6043 28C18.157 28.1333 16.8412 27.0667 16.7096 25.6V24.9333C16.9727 22.1333 18.9464 19.8667 21.7096 19.0667C22.3675 19.0667 23.0254 19.0667 23.5517 19.3333C24.2096 19.6 24.6043 20.4 24.3412 21.2C24.2096 21.4667 24.078 21.6 23.9464 21.7333C23.4201 22.2667 22.8938 22.8 22.3675 23.2C21.8412 23.6 21.4464 24 21.0517 24.5333C20.7885 24.8 20.657 25.0667 20.5254 25.3333C20.2622 25.8667 20.5254 26.1333 21.0517 26.1333C21.3149 26.1333 21.578 26.1333 21.8412 26C26.4464 24.2667 30.1306 21.0667 32.4991 16.8C32.8938 16.1333 33.0254 15.4667 33.0254 14.6667C33.157 12.4 31.7096 11.0667 29.6043 11.7333C28.0254 12.2667 26.3149 12.9333 24.8675 13.7333C23.2885 14.5333 21.7096 15.6 20.1306 16.4C18.9464 17.0667 17.6306 17.4667 16.1833 17.6C15.5254 17.7333 14.8675 17.6 14.3412 17.4667C13.0254 17.3333 11.9727 16 12.2359 14.4C12.2359 14.2667 12.2359 14.1333 12.3675 14C13.0254 12.1333 14.2096 10.4 15.7885 9.33333C18.8149 6.93333 22.3675 5.2 26.1833 4.4C26.8412 4.26667 27.6306 4.13333 28.2885 4H29.3412V4Z" fill="#EB2227"/>
</g>
<defs>
<clipPath id="clip0_1818_2852">
<rect width="50" height="32" fill="white"/>
</clipPath>
</defs>
</svg>
