<svg width="50" height="32" viewBox="0 0 50 32" fill="none" xmlns="http://www.w3.org/2000/svg">
<g clip-path="url(#clip0_1818_2891)">
<path opacity="0.07" d="M46.0526 0H3.94737C1.71053 0 0 1.73333 0 4V28C0 30.2667 1.84211 32 3.94737 32H46.0526C48.2895 32 50 30.2667 50 28V4C50 1.73333 48.1579 0 46.0526 0Z" fill="black"/>
<path d="M46.0493 1.33301C47.4967 1.33301 48.6809 2.53301 48.6809 3.99967V27.9997C48.6809 29.4663 47.4967 30.6663 46.0493 30.6663H3.94408C2.49671 30.6663 1.3125 29.4663 1.3125 27.9997V3.99967C1.3125 2.53301 2.49671 1.33301 3.94408 1.33301H46.0493Z" fill="white"/>
<path d="M37.236 13.467H36.8413C36.315 14.8003 35.9202 15.467 35.5255 17.467H38.0255C37.6308 15.467 37.6308 14.5337 37.236 13.467V13.467ZM41.0518 21.3337H38.815C38.6834 21.3337 38.6834 21.3337 38.5518 21.2003L38.2887 20.0003L38.1571 19.7337H34.9992C34.8676 19.7337 34.736 19.7337 34.736 20.0003L34.3413 21.2003C34.3413 21.3337 34.2097 21.3337 34.2097 21.3337H31.4465L31.7097 20.667L35.5255 11.6003C35.5255 10.9337 35.9202 10.667 36.5781 10.667H38.5518C38.6834 10.667 38.815 10.667 38.815 10.9337L40.6571 19.6003C40.7887 20.1337 40.9202 20.5337 40.9202 21.067C41.0518 21.2003 41.0518 21.2003 41.0518 21.3337V21.3337ZM23.4202 20.9337L23.9465 18.5337C24.0781 18.5337 24.2097 18.667 24.2097 18.667C25.1308 19.067 26.0518 19.3337 26.9729 19.2003C27.236 19.2003 27.6308 19.067 27.8939 18.9337C28.5518 18.667 28.5518 18.0003 28.0255 17.467C27.7623 17.2003 27.3676 17.067 26.9729 16.8003C26.4465 16.5337 25.9202 16.267 25.5255 15.867C23.9465 14.5337 24.4729 12.667 25.3939 11.7337C26.1834 11.2003 26.5781 10.667 27.6308 10.667C29.2097 10.667 30.9202 10.667 31.7097 10.9337H31.8413C31.7097 11.7337 31.5781 12.4003 31.315 13.2003C30.6571 12.9337 29.9992 12.667 29.3413 12.667C28.9465 12.667 28.5518 12.667 28.1571 12.8003C27.8939 12.8003 27.7623 12.9337 27.6308 13.067C27.3676 13.3337 27.3676 13.7337 27.6308 14.0003L28.2887 14.5337C28.815 14.8003 29.3413 15.067 29.736 15.3337C30.3939 15.7337 31.0518 16.4003 31.1834 17.2003C31.4465 18.4003 31.0518 19.467 29.9992 20.267C29.3413 20.8003 29.0781 21.067 28.1571 21.067C26.315 21.067 24.8676 21.2003 23.6834 20.8003C23.5518 21.067 23.5518 21.067 23.4202 20.9337V20.9337ZM18.815 21.3337C18.9465 20.4003 18.9465 20.4003 19.0781 20.0003C19.736 17.067 20.3939 14.0003 20.9202 11.067C21.0518 10.8003 21.0518 10.667 21.315 10.667H23.6834C23.4202 12.267 23.1571 13.467 22.7623 14.9337C22.3676 16.9337 21.9729 18.9337 21.4465 20.9337C21.4465 21.2003 21.315 21.2003 21.0518 21.2003L18.815 21.3337ZM6.57812 10.9337C6.57812 10.8003 6.84128 10.667 6.97286 10.667H11.4465C12.1044 10.667 12.6308 11.067 12.7623 11.7337L13.9465 17.6003C13.9465 17.7337 13.9465 17.7337 14.0781 17.867C14.0781 17.7337 14.2097 17.7337 14.2097 17.7337L16.9729 10.9337C16.8413 10.8003 16.9729 10.667 17.1044 10.667H19.8676C19.8676 10.8003 19.8676 10.8003 19.736 10.9337L15.6571 20.667C15.5255 20.9337 15.5255 21.067 15.3939 21.2003C15.2623 21.3337 14.9992 21.2003 14.736 21.2003H12.7623C12.6308 21.2003 12.4992 21.2003 12.4992 20.9337L10.3939 12.667C10.1308 12.4003 9.73602 12.0003 9.2097 11.867C8.42023 11.467 6.97286 11.2003 6.7097 11.2003L6.57812 10.9337Z" fill="#142688"/>
</g>
<defs>
<clipPath id="clip0_1818_2891">
<rect width="50" height="32" fill="white"/>
</clipPath>
</defs>
</svg>
