<svg width="50" height="32" viewBox="0 0 50 32" fill="none" xmlns="http://www.w3.org/2000/svg">
<g clip-path="url(#clip0_1818_2882)">
<path opacity="0.07" d="M46.0526 0H3.94737C1.71053 0 0 1.73333 0 4V28C0 30.2667 1.84211 32 3.94737 32H46.0526C48.2895 32 50 30.2667 50 28V4C50 1.73333 48.1579 0 46.0526 0Z" fill="black"/>
<path d="M46.0493 1.33301C47.4967 1.33301 48.6809 2.53301 48.6809 3.99967V27.9997C48.6809 29.4663 47.4967 30.6663 46.0493 30.6663H3.94408C2.49671 30.6663 1.3125 29.4663 1.3125 27.9997V3.99967C1.3125 2.53301 2.49671 1.33301 3.94408 1.33301H46.0493Z" fill="#006FCF"/>
<path d="M11.8064 13.691L12.8248 16.1923H10.7959L11.8064 13.691ZM32.9577 13.795H29.0406V14.8977H32.8946V16.5497H29.0485V17.779H32.9656V18.7643L35.6985 15.771L32.9656 12.651L32.9577 13.795ZM14.4538 10.675H19.7104L20.8775 13.255L21.959 10.667H35.6038L37.0222 12.2537L38.4893 10.667H44.7564L40.1262 15.803L44.709 20.907H38.3485L36.9301 19.3203L35.4498 20.907H13.1998L12.5498 19.3203H11.063L10.4117 20.907H5.26562L9.58931 10.667H14.1025L14.4538 10.675ZM25.8525 12.1123H22.9064L20.9327 16.827L18.7946 12.1123H15.8709V18.5257L13.1604 12.1123H10.538L7.40378 19.4617H9.44984L10.0998 17.875H13.5156L14.1656 19.4617H17.7446V14.215L20.0485 19.4697H21.6143L23.9038 14.231V19.471H25.8222L25.8538 12.111L25.8525 12.1123ZM38.1419 15.803L41.4722 12.1123H39.0748L36.9683 14.4137L34.9314 12.1123H27.1762V19.4697H34.8209L36.9446 17.1523L38.9814 19.4697H41.4485L38.1433 15.803H38.1419Z" fill="white"/>
</g>
<defs>
<clipPath id="clip0_1818_2882">
<rect width="50" height="32" fill="white"/>
</clipPath>
</defs>
</svg>
