<svg width="50" height="32" viewBox="0 0 50 32" fill="none" xmlns="http://www.w3.org/2000/svg">
<g clip-path="url(#clip0_1818_2857)">
<path fill-rule="evenodd" clip-rule="evenodd" d="M45.3947 32H4.60526C2.10526 32 0 29.8667 0 27.3333V4.66667C0 2.13333 2.10526 0 4.60526 0H45.3947C47.8947 0 50 2.13333 50 4.66667V27.3333C50 29.8667 47.8947 32 45.3947 32Z" fill="#EDEDED"/>
<path fill-rule="evenodd" clip-rule="evenodd" d="M4.60197 1.33301C2.75987 1.33301 1.3125 2.79967 1.3125 4.66634V27.333C1.3125 29.1997 2.75987 30.6663 4.60197 30.6663H45.3914C47.2336 30.6663 48.6809 29.1997 48.6809 27.333V4.66634C48.6809 2.79967 47.2336 1.33301 45.3914 1.33301H4.60197Z" fill="white"/>
<path d="M24.9984 28C31.5386 28 36.8405 22.6274 36.8405 16C36.8405 9.37258 31.5386 4 24.9984 4C18.4581 4 13.1562 9.37258 13.1562 16C13.1562 22.6274 18.4581 28 24.9984 28Z" fill="#E2704D"/>
<path fill-rule="evenodd" clip-rule="evenodd" d="M21.8454 15.6004L21.977 13.7337C21.977 13.7337 22.898 13.867 23.1612 13.6004C23.6875 13.2004 23.6875 12.4004 23.8191 12.0004C24.2138 10.1337 26.4507 9.06703 28.8191 9.7337L28.5559 11.6004C28.5559 11.6004 28.4243 11.467 28.0296 11.467C26.5822 11.3337 25.9243 11.7337 25.7928 13.7337H27.7664L27.5033 15.067L24.3454 18.267H26.1875C24.6086 20.0004 22.5033 22.1337 21.1875 23.3337L22.898 19.867H21.4507C22.7664 17.3337 22.7664 17.2004 23.6875 15.467" fill="white"/>
</g>
<defs>
<clipPath id="clip0_1818_2857">
<rect width="50" height="32" fill="white"/>
</clipPath>
</defs>
</svg>
