<svg width="50" height="32" viewBox="0 0 50 32" fill="none" xmlns="http://www.w3.org/2000/svg">
<g clip-path="url(#clip0_1818_2899)">
<path opacity="0.07" d="M46.0526 0H3.94737C1.71053 0 0 1.73333 0 4V28C0 30.2667 1.84211 32 3.94737 32H46.0526C48.2895 32 50 30.2667 50 28V4C50 1.73333 48.1579 0 46.0526 0Z" fill="black"/>
<path d="M46.0493 1.33301C47.4967 1.33301 48.6809 2.53301 48.6809 3.99967V27.9997C48.6809 29.4663 47.4967 30.6663 46.0493 30.6663H3.94408C2.49671 30.6663 1.3125 29.4663 1.3125 27.9997V3.99967C1.3125 2.53301 2.49671 1.33301 3.94408 1.33301H46.0493Z" fill="white"/>
<path d="M23.8082 15.9683V20.235H22.4688V9.70164H26.0095C26.4338 9.69436 26.8553 9.77213 27.2498 9.93047C27.6443 10.0888 28.004 10.3246 28.3082 10.6243C28.5964 10.8968 28.8288 11.2242 28.9921 11.5878C29.1553 11.9514 29.2463 12.344 29.2597 12.7432C29.2732 13.1425 29.2088 13.5405 29.0704 13.9145C28.932 14.2885 28.7222 14.6312 28.453 14.923L28.3082 15.0776C27.6898 15.6736 26.8635 15.9976 26.0095 15.9763L23.8082 15.9683V15.9683ZM23.8082 10.9923V14.7096H26.0424C26.5385 14.7256 27.0174 14.5296 27.3648 14.171C27.6133 13.9085 27.7801 13.5779 27.8446 13.2201C27.909 12.8623 27.8683 12.4932 27.7274 12.1587C27.5864 11.8243 27.3516 11.5391 27.052 11.3389C26.7524 11.1386 26.4013 11.032 26.0424 11.0323L23.8082 10.9923V10.9923ZM32.3398 12.7896C33.1951 12.7496 34.0319 13.0403 34.6793 13.607C35.2648 14.1803 35.5766 14.9803 35.5345 15.8056V20.251H34.2595V19.2296H34.1951C33.9664 19.6127 33.6431 19.9287 33.257 20.1464C32.871 20.3641 32.4355 20.476 31.9937 20.471C31.2726 20.4946 30.5693 20.2407 30.0253 19.7603C29.7676 19.5473 29.5611 19.2776 29.4213 18.9718C29.2816 18.666 29.2123 18.3319 29.2187 17.995C29.2036 17.6544 29.2688 17.3151 29.4091 17.0053C29.5494 16.6955 29.7607 16.4241 30.0253 16.2136C30.6746 15.7405 31.4603 15.499 32.2595 15.527C32.9398 15.5003 33.6148 15.651 34.2201 15.9683V15.691C34.2245 15.4617 34.1774 15.2344 34.0824 15.0262C33.9873 14.8181 33.8468 14.6346 33.6714 14.4896C33.3192 14.1652 32.8578 13.9896 32.3819 13.999C32.0363 13.9957 31.6955 14.0817 31.3919 14.249C31.0882 14.4163 30.8316 14.6593 30.6464 14.955L29.4687 14.203C29.7885 13.7387 30.2202 13.3651 30.7228 13.1177C31.2253 12.8703 31.782 12.7574 32.3398 12.7896V12.7896ZM30.6464 18.027C30.6432 18.1997 30.682 18.3705 30.7593 18.5244C30.8366 18.6783 30.9501 18.8106 31.0898 18.9096C31.3832 19.1443 31.7477 19.2683 32.1227 19.2603C32.6872 19.259 33.228 19.0336 33.6306 18.631C34.0319 18.2496 34.2595 17.7176 34.2595 17.1603C33.753 16.7954 33.1375 16.6192 32.5174 16.6616C32.036 16.6424 31.5611 16.7798 31.1622 17.0536C31.0042 17.1607 30.8745 17.3055 30.7846 17.4752C30.6947 17.6449 30.6472 17.8344 30.6464 18.027V18.027ZM42.8648 13.027L38.4043 23.4136H37.0253L38.7109 19.7763L35.7845 13.027H37.2359L39.3569 18.207L41.4214 13.027H42.8648V13.027Z" fill="#5F6368"/>
<path d="M18.4049 15.045C18.4049 14.6344 18.3733 14.2237 18.3088 13.8184H12.6641V16.1477H15.8891C15.8234 16.5179 15.6847 16.8708 15.4812 17.1854C15.2777 17.5 15.0137 17.7697 14.7049 17.9784V19.4904H16.6312C17.2169 18.9161 17.6773 18.2238 17.9828 17.4581C18.2883 16.6925 18.4321 15.8704 18.4049 15.045Z" fill="#4285F4"/>
<path d="M12.6675 20.9613C14.1232 21.0017 15.5394 20.4787 16.628 19.4986L14.6991 17.9786C14.2356 18.2797 13.7105 18.4698 13.1636 18.5343C12.6167 18.5989 12.0625 18.5362 11.5432 18.3511C11.0238 18.166 10.5529 17.8633 10.1663 17.466C9.77974 17.0688 9.48765 16.5874 9.31225 16.0586H7.33594V17.6186C7.83048 18.6226 8.59126 19.4672 9.53298 20.0576C10.4747 20.6481 11.5601 20.961 12.6675 20.9613V20.9613Z" fill="#34A853"/>
<path d="M9.31253 16.0667C9.06226 15.3164 9.06226 14.5036 9.31253 13.7534V12.1934H7.33622C6.91488 13.0353 6.69531 13.966 6.69531 14.91C6.69531 15.854 6.91488 16.7848 7.33622 17.6267L9.31253 16.0667V16.0667Z" fill="#FBBC04"/>
<path d="M12.6675 11.2529C13.5188 11.2372 14.3418 11.5631 14.957 12.1596L16.6675 10.4356C15.5769 9.39828 14.1302 8.83248 12.6346 8.85827C11.5338 8.86386 10.456 9.17827 9.52072 9.76664C8.58544 10.355 7.82924 11.1943 7.33594 12.1916L9.31225 13.7529C9.54333 13.033 9.99132 12.4047 10.5932 11.9562C11.195 11.5078 11.9205 11.2618 12.6675 11.2529V11.2529Z" fill="#EA4335"/>
</g>
<defs>
<clipPath id="clip0_1818_2899">
<rect width="50" height="32" fill="white"/>
</clipPath>
</defs>
</svg>
