<svg width="50" height="32" viewBox="0 0 50 32" fill="none" xmlns="http://www.w3.org/2000/svg">
<g clip-path="url(#clip0_1818_2863)">
<path opacity="0.07" d="M46.0526 0H3.94737C1.71053 0 0 1.73333 0 4V28C0 30.2667 1.84211 32 3.94737 32H46.0526C48.2895 32 50 30.2667 50 28V4C50 1.73333 48.1579 0 46.0526 0Z" fill="black"/>
<path d="M46.0493 1.33301C47.4967 1.33301 48.6809 2.53301 48.6809 3.99967V27.9997C48.6809 29.4663 47.4967 30.6663 46.0493 30.6663H3.94408C2.49671 30.6663 1.3125 29.4663 1.3125 27.9997V3.99967C1.3125 2.53301 2.49671 1.33301 3.94408 1.33301H46.0493Z" fill="white"/>
<path d="M19.734 25.3337C24.8208 25.3337 28.9445 21.155 28.9445 16.0003C28.9445 10.8457 24.8208 6.66699 19.734 6.66699C14.6471 6.66699 10.5234 10.8457 10.5234 16.0003C10.5234 21.155 14.6471 25.3337 19.734 25.3337Z" fill="#EB001B"/>
<path d="M30.2652 25.3337C35.352 25.3337 39.4757 21.155 39.4757 16.0003C39.4757 10.8457 35.352 6.66699 30.2652 6.66699C25.1784 6.66699 21.0547 10.8457 21.0547 16.0003C21.0547 21.155 25.1784 25.3337 30.2652 25.3337Z" fill="#F79E1B"/>
<path d="M28.9494 16.0004C28.9494 12.8004 27.3705 10.0004 25.0021 8.40039C22.6336 10.1337 21.0547 12.9337 21.0547 16.0004C21.0547 19.0671 22.6336 22.0004 25.0021 23.6004C27.3705 22.0004 28.9494 19.2004 28.9494 16.0004Z" fill="#FF5F00"/>
</g>
<defs>
<clipPath id="clip0_1818_2863">
<rect width="50" height="32" fill="white"/>
</clipPath>
</defs>
</svg>
