<svg width="50" height="32" viewBox="0 0 50 32" fill="none" xmlns="http://www.w3.org/2000/svg">
<g clip-path="url(#clip0_1818_2887)">
<path d="M45.3931 0.666992H4.60362C2.42355 0.666992 0.65625 2.45785 0.65625 4.66699V27.3337C0.65625 29.5428 2.42355 31.3337 4.60362 31.3337H45.3931C47.5732 31.3337 49.3405 29.5428 49.3405 27.3337V4.66699C49.3405 2.45785 47.5732 0.666992 45.3931 0.666992Z" fill="white" stroke="black" stroke-opacity="0.07"/>
<path d="M40.984 11.3604C40.5412 11.3371 40.0976 11.3821 39.6682 11.4937C39.3392 11.5604 39.0234 11.7204 38.6813 11.8004C38.3984 11.8493 38.1128 11.8805 37.8261 11.8937C37.9182 10.5604 37.984 9.22703 38.0892 7.8937C38.117 7.71637 38.1092 7.53518 38.0662 7.36099C38.0232 7.1868 37.946 7.02321 37.8391 6.88001C37.7322 6.73682 37.5978 6.61698 37.4441 6.52769C37.2904 6.43839 37.1204 6.38148 36.9445 6.36036C36.4758 6.3258 36.0053 6.3258 35.5366 6.36036V5.8137C35.5574 5.65056 35.5382 5.48475 35.4806 5.33095C35.423 5.17715 35.3289 5.04011 35.2066 4.93198C35.0843 4.82385 34.9375 4.74796 34.7793 4.71105C34.6212 4.67414 34.4564 4.67734 34.2998 4.72036L33.3787 4.86703L24.1682 6.42703V15.867C24.1281 16.2806 24.0398 16.6879 23.905 17.0804C23.7998 17.4937 23.6813 17.9204 23.5629 18.4137C23.5489 18.4428 23.5417 18.4747 23.5417 18.507C23.5417 18.5394 23.5489 18.5713 23.5629 18.6004L28.4971 8.82703C28.6283 8.51264 28.8664 8.25634 29.1682 8.10466C29.47 7.95299 29.8154 7.91598 30.1419 8.00036C30.462 8.06902 30.7481 8.24954 30.9501 8.51034C31.1522 8.77114 31.2573 9.09562 31.2471 9.42703V22.3604C31.213 22.7201 31.0479 23.054 30.7839 23.297C30.5199 23.54 30.1761 23.6747 29.8195 23.6747C29.4629 23.6747 29.119 23.54 28.8551 23.297C28.5911 23.054 28.426 22.7201 28.3919 22.3604V15.6937H28.2866L24.4445 23.1604C24.2954 23.4537 24.1375 23.7337 23.9708 24.0004C23.8031 24.2592 23.5582 24.457 23.2718 24.5649C22.9855 24.6728 22.6725 24.6853 22.3787 24.6004C22.0892 24.5248 21.8337 24.3515 21.6544 24.1092C21.475 23.8668 21.3824 23.5698 21.3919 23.267V11.787H21.2208L14.0892 25.507C14.0102 25.6942 13.8942 25.863 13.7485 26.003C13.6027 26.1431 13.4302 26.2515 13.2416 26.3216C13.053 26.3916 12.8523 26.4219 12.6517 26.4104C12.4512 26.399 12.255 26.3462 12.0754 26.2551C11.8957 26.1641 11.7363 26.0368 11.6069 25.8811C11.4776 25.7253 11.381 25.5445 11.3232 25.3495C11.2653 25.1546 11.2474 24.9497 11.2705 24.7475C11.2936 24.5453 11.3573 24.3501 11.4576 24.1737C12.2734 22.667 13.0498 21.187 13.8129 19.7204L20.2866 7.0937L11.9708 8.42703C11.6408 8.4853 11.3324 8.63238 11.0778 8.85288C10.8231 9.07337 10.6317 9.35917 10.5234 9.68036V27.1204C10.6196 27.3914 10.7997 27.6235 11.0369 27.7822C11.2741 27.9408 11.5555 28.0173 11.8392 28.0004H31.9576C32.3245 28.0328 32.69 27.9248 32.9822 27.6978C33.2745 27.4708 33.4722 27.1411 33.5366 26.7737L33.6155 26.467H35.0629C35.2587 26.4808 35.4545 26.4396 35.6286 26.3478C35.8027 26.2561 35.9485 26.1174 36.0498 25.947C36.2194 25.6729 36.3397 25.3704 36.405 25.0537C36.5103 24.467 36.5498 23.8537 36.6155 23.2537C36.8436 21.1026 37.0673 18.947 37.2866 16.787C37.2848 16.7527 37.2899 16.7183 37.3017 16.686C37.3135 16.6537 37.3316 16.6242 37.355 16.5992C37.3784 16.5743 37.4066 16.5544 37.4378 16.5408C37.469 16.5273 37.5026 16.5203 37.5366 16.5204C37.8787 16.5204 38.1945 16.4004 38.5234 16.3337C39.4031 16.1912 40.2396 15.8493 40.9708 15.3337C41.3502 15.069 41.6544 14.708 41.853 14.2869C42.0515 13.8657 42.1375 13.3991 42.1024 12.9337C42.1428 12.5774 42.0505 12.2187 41.8437 11.9277C41.6368 11.6367 41.3302 11.4344 40.984 11.3604V11.3604ZM36.5498 7.8937C36.4182 8.78703 36.3655 9.70703 36.2734 10.5604C36.1155 12.1337 35.9708 13.707 35.8129 15.2937L35.3392 20.0004C35.1989 21.3337 35.0541 22.667 34.905 24.0004C34.8943 24.1324 34.8529 24.2599 34.7843 24.3726C34.7157 24.4853 34.6217 24.58 34.5101 24.6489C34.3985 24.7178 34.2724 24.759 34.1421 24.7691C34.0118 24.7792 33.8809 24.7579 33.7603 24.707L35.5234 6.3737C35.7761 6.55903 36.0178 6.75939 36.2471 6.9737C36.3683 7.08714 36.4596 7.22957 36.5124 7.38796C36.5653 7.54635 36.5781 7.71565 36.5498 7.88036V7.8937ZM39.7998 14.5604C39.6465 14.5571 39.4955 14.5224 39.3559 14.4582C39.2163 14.3941 39.091 14.3018 38.9876 14.1871C38.8843 14.0724 38.805 13.9376 38.7546 13.7909C38.7042 13.6442 38.6838 13.4887 38.6945 13.3337C38.6945 13.1849 38.7234 13.0375 38.7796 12.9C38.8358 12.7625 38.9182 12.6375 39.0221 12.5323C39.1259 12.4271 39.2492 12.3436 39.3849 12.2866C39.5206 12.2297 39.666 12.2004 39.8129 12.2004C40.1148 12.2021 40.4036 12.3253 40.6158 12.5429C40.828 12.7604 40.9462 13.0545 40.9445 13.3604C40.9427 13.6662 40.8212 13.9589 40.6065 14.1739C40.3918 14.389 40.1016 14.5088 39.7998 14.507V14.5604ZM40.5366 13.3337C40.5332 13.5236 40.4573 13.7047 40.3247 13.839C40.1922 13.9733 40.0135 14.0503 39.8261 14.0537C39.6855 14.0537 39.5482 14.0115 39.4313 13.9324C39.3145 13.8532 39.2234 13.7408 39.1696 13.6092C39.1158 13.4777 39.1018 13.3329 39.1292 13.1932C39.1566 13.0536 39.2243 12.9253 39.3236 12.8246C39.423 12.7239 39.5496 12.6553 39.6875 12.6275C39.8253 12.5998 39.9681 12.614 40.098 12.6685C40.2278 12.723 40.3388 12.8153 40.4168 12.9337C40.4949 13.0521 40.5366 13.1913 40.5366 13.3337V13.3337Z" fill="#26BCBC"/>
<path d="M12.3182 26.5195C12.0924 26.4494 11.8865 26.3254 11.718 26.1578C11.5494 25.9902 11.423 25.784 11.3495 25.5566C11.276 25.3292 11.2575 25.0872 11.2955 24.8511C11.3336 24.6149 11.4271 24.3914 11.5682 24.1995C12.2787 22.6662 13.055 21.1862 13.8182 19.7195L21.384 4.98621C21.5327 4.62699 21.8141 4.3409 22.1681 4.18895C22.522 4.037 22.9206 4.03123 23.2787 4.17287C22.9192 4.01092 22.511 3.99997 22.1435 4.14242C21.776 4.28488 21.4792 4.56912 21.3182 4.93287L13.5419 19.8129C12.7524 21.3329 11.9629 22.8262 11.1998 24.3329C11.0278 24.6078 10.9483 24.9318 10.9732 25.2563C10.9981 25.5808 11.1261 25.8884 11.3379 26.1331C11.5497 26.3778 11.8341 26.5464 12.1484 26.6136C12.4626 26.6809 12.79 26.6432 13.0813 26.5062C12.8149 26.5847 12.532 26.5847 12.2656 26.5062L12.3182 26.5195ZM28.5682 8.75954C28.6988 8.49983 28.9055 8.28739 29.1599 8.15134C29.4143 8.01528 29.7039 7.96226 29.9892 7.99954C29.6928 7.94114 29.3856 7.98089 29.1131 8.11294C28.8407 8.24499 28.6173 8.46234 28.4761 8.73287C27.4103 10.8262 25.6998 14.3595 24.634 16.5729L28.5682 8.75954ZM29.884 23.7995C29.5036 23.7995 29.1388 23.6464 28.8698 23.3739C28.6009 23.1013 28.4498 22.7317 28.4498 22.3462V15.6795H28.2919H28.3708V22.4395C28.3708 22.8285 28.5233 23.2016 28.7947 23.4766C29.0662 23.7517 29.4343 23.9062 29.8182 23.9062C30.202 23.9062 30.5702 23.7517 30.8416 23.4766C31.1131 23.2016 31.2656 22.8285 31.2656 22.4395V22.3062C31.2709 22.5015 31.2373 22.6959 31.1667 22.8778C31.0962 23.0596 30.9902 23.2252 30.8551 23.3646C30.72 23.504 30.5585 23.6144 30.3804 23.6891C30.2022 23.7639 30.011 23.8014 29.8182 23.7995H29.884ZM31.2261 9.33287C31.2287 9.38172 31.2287 9.43069 31.2261 9.47954V9.33287ZM22.3708 24.5862C22.0813 24.5106 21.8258 24.3374 21.6465 24.095C21.4671 23.8527 21.3745 23.5557 21.384 23.2529V11.7862H21.2261V23.3862C21.2332 23.6926 21.3385 23.9883 21.526 24.2288C21.7135 24.4693 21.9731 24.6416 22.2656 24.7195C22.5161 24.7881 22.7801 24.7871 23.0301 24.7167C23.2801 24.6463 23.5069 24.5092 23.6866 24.3195C23.5054 24.4693 23.2907 24.5719 23.0614 24.6184C22.832 24.6649 22.595 24.6538 22.3708 24.5862V24.5862Z" fill="#00AAA8"/>
</g>
<defs>
<clipPath id="clip0_1818_2887">
<rect width="50" height="32" fill="white"/>
</clipPath>
</defs>
</svg>
