<svg width="50" height="32" viewBox="0 0 50 32" fill="none" xmlns="http://www.w3.org/2000/svg">
<g clip-path="url(#clip0_1818_2869)">
<path fill-rule="evenodd" clip-rule="evenodd" d="M45.3947 32H4.60526C2.10526 32 0 29.8667 0 27.3333V4.66667C0 2.13333 2.10526 0 4.60526 0H45.3947C47.8947 0 50 2.13333 50 4.66667V27.3333C50 29.8667 47.8947 32 45.3947 32Z" fill="#EDEDED"/>
<path fill-rule="evenodd" clip-rule="evenodd" d="M4.60197 1.33301C2.75987 1.33301 1.3125 2.79967 1.3125 4.66634V27.333C1.3125 29.1997 2.75987 30.6663 4.60197 30.6663H45.3914C47.2336 30.6663 48.6809 29.1997 48.6809 27.333V4.66634C48.6809 2.79967 47.2336 1.33301 45.3914 1.33301H4.60197Z" fill="white"/>
<path d="M25.0008 28C31.3957 28 36.5798 22.6274 36.5798 16C36.5798 9.37258 31.3957 4 25.0008 4C18.6059 4 13.4219 9.37258 13.4219 16C13.4219 22.6274 18.6059 28 25.0008 28Z" fill="#378F43"/>
<path fill-rule="evenodd" clip-rule="evenodd" d="M25.1345 11.7329L22.3713 20.5329H19.4766L22.2397 11.7329H25.1345ZM30.5292 11.7329L27.766 20.3996H24.7397L27.5029 11.5996L30.5292 11.7329Z" fill="#8BC249"/>
<path fill-rule="evenodd" clip-rule="evenodd" d="M16.7109 11.7334L19.4741 20.5334H22.3688L19.7373 11.7334H16.7109ZM22.2373 11.7334L25.0004 20.5334H28.0267L25.2636 11.7334H22.2373ZM27.632 11.7334L30.3952 20.5334H33.4215L30.6583 11.7334H27.632Z" fill="white"/>
</g>
<defs>
<clipPath id="clip0_1818_2869">
<rect width="50" height="32" fill="white"/>
</clipPath>
</defs>
</svg>
