<svg width="50" height="32" viewBox="0 0 50 32" fill="none" xmlns="http://www.w3.org/2000/svg">
<g clip-path="url(#clip0_1818_2895)">
<path d="M45.3931 0.666992H4.60362C2.42355 0.666992 0.65625 2.45785 0.65625 4.66699V27.3337C0.65625 29.5428 2.42355 31.3337 4.60362 31.3337H45.3931C47.5732 31.3337 49.3405 29.5428 49.3405 27.3337V4.66699C49.3405 2.45785 47.5732 0.666992 45.3931 0.666992Z" fill="white" stroke="black" stroke-opacity="0.07"/>
<path d="M24.0785 6.55957H15.7891V15.0529H19.0127V9.86624H24.0785V6.55957ZM25.9206 6.55957V9.86624H30.9996V15.0529H34.2101V6.55957H25.9206ZM30.9864 16.9329V22.1329H25.9206V25.4262H34.2101V16.9462H30.9864V16.9329ZM19.0127 22.1329V16.9462H15.7891V25.4262H24.0785V22.1329H19.0127V22.1329Z" fill="#ED232A"/>
<path d="M22.25 13.1729H27.7632V18.8262H22.3684L22.25 13.1729Z" fill="#004C8F"/>
</g>
<defs>
<clipPath id="clip0_1818_2895">
<rect width="50" height="32" fill="white"/>
</clipPath>
</defs>
</svg>
