<svg width="50" height="32" viewBox="0 0 50 32" fill="none" xmlns="http://www.w3.org/2000/svg">
<g clip-path="url(#clip0_1818_2876)">
<path d="M45.3931 0.666992H4.60362C2.42355 0.666992 0.65625 2.45785 0.65625 4.66699V27.3337C0.65625 29.5428 2.42355 31.3337 4.60362 31.3337H45.3931C47.5732 31.3337 49.3405 29.5428 49.3405 27.3337V4.66699C49.3405 2.45785 47.5732 0.666992 45.3931 0.666992Z" fill="white" stroke="black" stroke-opacity="0.07"/>
<path fill-rule="evenodd" clip-rule="evenodd" d="M42.1016 21.0275L44.7331 11.1475L47.3647 16.2408L42.1016 21.0275Z" fill="#097A44"/>
<path fill-rule="evenodd" clip-rule="evenodd" d="M40.4688 21.0532L43.1003 11.1865L45.7319 16.2799L40.4688 21.0532Z" fill="#F46F20"/>
<path fill-rule="evenodd" clip-rule="evenodd" d="M27.1986 10.9335C26.929 10.6676 26.6063 10.4634 26.2522 10.3345C25.8981 10.2057 25.5209 10.1554 25.146 10.1868H21.1986L18.6328 19.2668H20.9354L21.8039 16.1868H23.4223C24.3022 16.2187 25.1719 15.9868 25.9223 15.5202C26.6703 14.9608 27.1937 14.1463 27.396 13.2268C27.559 12.8593 27.6265 12.4556 27.5919 12.0541C27.5574 11.6527 27.422 11.2669 27.1986 10.9335V10.9335ZM22.9749 12.1868H24.4486C24.7063 12.1558 24.9658 12.2275 25.1723 12.3868C25.317 12.5335 25.2644 12.8535 25.1723 13.0935C25.0981 13.4231 24.9117 13.7158 24.646 13.9202C24.3732 14.1028 24.0517 14.1959 23.7249 14.1868H22.3697L22.9749 12.1868V12.1868ZM12.0275 12.0002C11.9936 11.7141 11.9041 11.4377 11.7644 11.1868C11.588 10.8771 11.3215 10.6303 11.0012 10.4802C10.5482 10.3044 10.065 10.2228 9.58018 10.2402H5.26439L2.63281 19.2402H4.90913L5.8565 15.8802H7.50123C8.11965 15.8802 8.26439 16.0135 8.29071 16.0535C8.31702 16.0935 8.40913 16.2535 8.29071 16.9202L8.08018 17.7202C8.00881 17.9775 7.96037 18.2407 7.93544 18.5068V19.2402H10.2907L10.4486 18.6668L10.3039 18.5602C10.3039 18.5602 10.2118 18.4935 10.2249 18.2935C10.2604 18.0402 10.317 17.7908 10.396 17.5468L10.5275 16.9868C10.6996 16.5139 10.745 16.0033 10.6591 15.5068C10.5979 15.2957 10.4794 15.1063 10.317 14.9602C10.6637 14.7895 10.9691 14.5437 11.2118 14.2402C11.5317 13.8487 11.769 13.3949 11.9091 12.9068C12.0012 12.6135 12.042 12.3068 12.0275 12.0002V12.0002ZM9.58018 13.1068C9.54265 13.2842 9.46317 13.4497 9.34857 13.589C9.23397 13.7284 9.08768 13.8374 8.92229 13.9068C8.65109 13.9983 8.36574 14.0389 8.08018 14.0268H6.39597L6.89597 12.2535H8.77755C9.01622 12.2344 9.25583 12.2757 9.47492 12.3735C9.54071 12.3735 9.75123 12.4668 9.58018 13.0402V13.1068ZM16.0275 16.0002C15.9485 16.319 15.8149 16.6214 15.6328 16.8935C15.5057 17.0797 15.334 17.23 15.1337 17.3303C14.9334 17.4306 14.7112 17.4776 14.4881 17.4668C14.0407 17.4668 14.0144 17.2802 13.9881 17.2002C13.9696 16.965 14.001 16.7286 14.0802 16.5068L15.2512 12.3602H13.0275L11.896 16.3602C11.7012 16.9245 11.6338 17.5259 11.6986 18.1202C11.8039 18.6802 12.2249 19.3335 13.5539 19.3335C13.8789 19.3388 14.2025 19.2935 14.5144 19.2002C14.7933 19.1074 15.0588 18.9774 15.3039 18.8135L15.1986 19.2135H17.3302L19.2644 12.3735H17.1065L16.0275 16.0002ZM33.0407 17.4668L33.8697 14.5602C34.1854 13.4535 33.7775 12.9468 33.3828 12.7068C32.8298 12.404 32.2086 12.2523 31.5802 12.2668C30.6211 12.219 29.6801 12.5432 28.9486 13.1735C28.5348 13.5819 28.2235 14.0848 28.0407 14.6402L27.9223 14.9868H30.0407V14.8402C30.1175 14.6555 30.2292 14.4879 30.3697 14.3468C30.5805 14.1842 30.842 14.1038 31.1065 14.1202C31.314 14.1005 31.523 14.1373 31.7118 14.2268V14.4668C31.7118 14.5468 31.7118 14.6668 31.3828 14.7735C31.1781 14.8424 30.9661 14.8872 30.7512 14.9068L30.1723 14.9735C29.6049 15.0246 29.0494 15.1687 28.5275 15.4002C27.7775 15.7615 27.2249 16.4402 27.0144 17.2535C26.9099 17.5211 26.8756 17.8116 26.9148 18.0967C26.954 18.3817 27.0654 18.6517 27.2381 18.8802C27.6183 19.2895 28.1591 19.5042 28.7118 19.4668C29.2 19.4661 29.6816 19.3521 30.1197 19.1335L30.646 18.8268V19.2668H32.896L33.067 18.6268L32.896 18.5335C32.8784 18.4365 32.8784 18.3371 32.896 18.2402C32.896 17.9068 32.9881 17.6668 33.0407 17.4668ZM29.1986 17.3335C29.2301 17.2168 29.2865 17.1086 29.3638 17.0165C29.4411 16.9243 29.5374 16.8505 29.646 16.8002C29.8858 16.6992 30.1382 16.632 30.396 16.6002L30.7775 16.5335L31.1723 16.4402V16.5335C31.0812 16.9407 30.8415 17.298 30.5012 17.5335C30.2154 17.71 29.8885 17.8066 29.5539 17.8135C29.4948 17.8187 29.4353 17.8119 29.3788 17.7936C29.3224 17.7753 29.27 17.7458 29.2249 17.7068C29.1844 17.5868 29.1754 17.4581 29.1986 17.3335V17.3335ZM39.6065 12.4268L37.3828 16.4268V12.4268H35.0144L35.5275 19.2668L35.3697 19.5202C35.2935 19.6519 35.1903 19.7656 35.067 19.8535C34.9698 19.91 34.8624 19.9462 34.7512 19.9602H33.8565L33.3433 21.7868H34.4354C35.0358 21.837 35.6349 21.677 36.1328 21.3335C36.772 20.639 37.3325 19.8743 37.8039 19.0535L41.9749 12.3868L39.6065 12.4268V12.4268Z" fill="#302F82"/>
</g>
<defs>
<clipPath id="clip0_1818_2876">
<rect width="50" height="32" fill="white"/>
</clipPath>
</defs>
</svg>
