<svg width="24" height="24" viewBox="0 0 24 24" fill="none" xmlns="http://www.w3.org/2000/svg">
<path d="M23.0898 21.5997L16.733 15.7197C19.3925 12.4797 19.0682 7.79969 15.8898 4.85969C12.3871 1.61969 6.67897 1.61969 3.1114 4.85969C-0.391301 8.09969 -0.391301 13.3797 3.1114 16.6797C4.79789 18.2397 7.06816 19.1397 9.46816 19.1397C11.4141 19.1397 13.2952 18.5397 14.8519 17.4597L21.2087 23.3397C21.4682 23.5797 21.7925 23.6997 22.1168 23.6997C22.4411 23.6997 22.7655 23.5797 23.0249 23.3397C23.6087 22.7997 23.6087 22.0797 23.0898 21.5997ZM9.53302 16.6797C7.84654 16.6797 6.22492 16.0797 4.99248 14.9397C2.46275 12.5997 2.46275 8.87969 4.99248 6.53969C6.22492 5.39969 7.9114 4.79969 9.53302 4.79969C11.1546 4.79969 12.8411 5.39969 14.0736 6.53969C16.6033 8.87969 16.6033 12.5997 14.0736 14.9397C12.8411 16.0797 11.2195 16.6797 9.53302 16.6797V16.6797Z" fill="black"/>
</svg>
